<svg xmlns="http://www.w3.org/2000/svg" viewBox="0 0 210 126"><path d="M169.26,108l-9.59-39h-3V59.09L152.4,57H143l-4.31,2.07V69h-3l-9.59,39-5,2.38V126H174.3V110.33Z M144.67,63h6V69h-6Zm-10.74,38.09H156.7l-1.47-6H135.41L137,88.6h16.62l-1.48-6H138.48l1.87-7.6H155l8.11,33H132.24Z M168.29,120H127v-6h41.27Z M89,53.35l-5-2.37L74.34,12h-3V2.11L67.07,0H57.65L53.34,2.11V12h-3L40.73,51l-5,2.37V69H89Z M59.35,6.05h6v6h-6Z M48.6,44.14H71.38l-1.48-6H50.08l1.6-6.51H68.3l-1.47-6H53.16L55,18h14.6l8.11,33H46.92Z M83,63H41.7V57H83Z" fill="#000"/></svg>
